<svg xmlns="http://www.w3.org/2000/svg" width="34.582" height="30.982" viewBox="0 0 34.582 30.982">
  <path id="Icon_awesome-wrench" data-name="Icon awesome-wrench" d="M32.256,6.166a.8.8,0,0,0-1.278-.311l-4.724,4.2-4.312-.639-.719-3.836,4.724-4.2A.656.656,0,0,0,25.587.24,9.93,9.93,0,0,0,16.91,2.383,7.512,7.512,0,0,0,14.747,10.7L1.191,22.763a3.342,3.342,0,0,0,0,5.115,4.43,4.43,0,0,0,5.749,0l13.545-12.05a9.944,9.944,0,0,0,9.362-1.934,7.543,7.543,0,0,0,2.408-7.728ZM4.066,26.677a1.366,1.366,0,1,1,0-2.713,1.366,1.366,0,1,1,0,2.713Z" transform="translate(1 1.045)" fill="none" stroke="#fff" stroke-width="2" opacity="0.82"/>
</svg>
